<svg width="105" height="25" viewBox="0 0 105 25" fill="none" xmlns="http://www.w3.org/2000/svg">
<path d="M0 24.125V0.5H6.75V3.875H10.125V7.25H13.5V3.875H16.875V0.5H23.625V24.125H16.875V10.625H13.5V17.375H10.125V10.625H6.75V24.125H0ZM30.375 24.125V20.75H27V3.875H30.375V0.5H47.25V3.875H50.625V20.75H47.25V24.125H30.375ZM33.75 20.75H43.875V3.875H33.75V20.75Z" fill="#FF0000"/>
<path d="M60.75 24.125V20.75H57.375V17.375H54V7.25H57.375V3.875H60.75V0.5H74.25V3.875H77.625V7.25H70.875V3.875H64.125V7.25H60.75V17.375H64.125V20.75H70.875V17.375H77.625V20.75H74.25V24.125H60.75Z" fill="#FFB800"/>
<path d="M84.375 24.125V20.75H81V3.875H84.375V0.5H101.25V3.875H104.625V20.75H101.25V24.125H84.375ZM87.75 20.75H97.875V3.875H87.75V20.75Z" fill="#0AFF05"/>
</svg>
